<svg xmlns="http://www.w3.org/2000/svg"
  viewBox="0 0 24 24"
  version="1.1" id="Capa_1" x="0px" y="0px"
  xml:space="preserve"
  style="enable-background:new 0 0 512 512;"
  width="100px"
  height="100px">
    <path
      d="M 17.71875 5 C 16.622443 5 15.692958 5.4277798 15.375 6.03125 C 15.120689 6.0954258 12.736552 6.6843854 12.46875 6.78125 C 11.69575 7.06225 12.105 8.1165 12.875 7.9375 C 13.513 7.7885 14.6875 6.96875 14.6875 6.96875 C 15.6105 8.68275 16.756 13.5975 16.375 14.3125 C 15.138 16.6345 13.775 17.25 11.25 17.25 C 8.156 17.25 7.929 17.2045 9.375 14.3125 C 9.711 13.6395 9.376 13 8.625 13 L 2.25 13 C 1.465 13.493 0 16.055 0 17.25 C 0 17.988281 0.67296133 18.558221 1.75 19 C 1.2785891 19.529922 1 20.234856 1 21 C 1 22.657 2.343 24 4 24 C 5.657 24 7 22.657 7 21 C 7 20.654792 6.9197754 20.339897 6.8125 20.03125 C 8.2768042 20.172461 9.8053021 20.25 11.25 20.25 L 14.1875 20.25 C 14.612379 20.25 15.387909 19.712506 16.3125 18.96875 C 16.109382 20.03484 16.41371 20.96875 16.6875 20.96875 C 17.390783 20.96875 17.425585 20.283442 18.40625 19.46875 C 18.141458 19.915927 18 20.442581 18 21 C 18 22.657 19.343 24 21 24 C 22.657 24 24 22.657 24 21 C 24 19.550125 22.960869 18.342213 21.59375 18.0625 C 23.088286 17.793459 23.96875 18.12599 23.96875 17.6875 C 23.96875 17.005428 22.201599 15.800915 20.125 15.9375 C 20.20024 15.863732 20.25 15.8018 20.25 15.75 C 20.25 15.309 20.162 11.74825 18.375 9.03125 C 17.842892 9.03125 16.101905 8.3126947 15.65625 7.34375 C 16.098047 7.7427246 16.86875 8 17.71875 8 C 18.98475 8 19 8.001 19 6.5 C 19 5.001 18.97275 5 17.71875 5 z M 3 10 C 2.448 10 2 10.448 2 11 C 2 11.552 2.448 12 3 12 L 9 12 C 9.552 12 10 11.552 10 11 C 10 10.448 9.552 10 9 10 L 3 10 z M 21 19.5 C 21.827 19.5 22.5 20.173 22.5 21 C 22.5 21.827 21.827 22.5 21 22.5 C 20.173 22.5 19.5 21.827 19.5 21 C 19.5 20.817371 19.533698 20.630769 19.59375 20.46875 L 20.40625 21.46875 A 0.7564824 0.7564824 0 0 0 21.59375 20.53125 L 20.78125 19.53125 C 20.851189 19.521209 20.92733 19.5 21 19.5 z M 3.625 19.5625 C 3.7465139 19.589551 3.8745378 19.599729 4 19.625 C 3.7923534 19.946398 3.5833528 20.257836 3.375 20.5625 A 0.76290973 0.76290973 0 1 0 4.625 21.4375 C 4.854015 21.102622 5.1013591 20.735879 5.34375 20.34375 C 5.4386743 20.540434 5.5 20.767406 5.5 21 C 5.5 21.827 4.827 22.5 4 22.5 C 3.173 22.5 2.5 21.827 2.5 21 C 2.5 20.300496 2.9760924 19.727584 3.625 19.5625 z"
      fill="#000" />
</svg>
