<svg
  xmlns="http://www.w3.org/2000/svg"
  xmlns:xlink="http://www.w3.org/1999/xlink"
  version="1.1" id="Capa_1" x="0px" y="0px"
  viewBox="0 0 294.006 294.006"
  style="enable-background:new 0 0 294.006 294.006;"
  xml:space="preserve"
  width="100px"
  height="100px">
  <g>
    <path
      d="M259.999,211.872c-1.629,0-3.229,0.122-4.797,0.345L173.963,39.691l15.024-6.358   c5.086-2.152,7.465-8.02,5.313-13.106s-8.021-7.466-13.106-5.312l-50.882,21.532c-5.086,2.152-7.465,8.021-5.313,13.106   c1.614,3.814,5.317,6.105,9.214,6.105c1.299,0,2.621-0.255,3.893-0.794l17.425-7.374l71.754,152.384   c-14.251,7.906-24.207,21.882-27.196,37.708H91.61c-2.729-19.37-13.387-34.848-29.179-41.572   c-5.083-2.164-10.955,0.202-13.118,5.284c-2.164,5.081,0.202,10.954,5.283,13.118c9.669,4.117,14.721,13.531,16.697,23.17h-4.307   c-3.713-14.754-17.089-25.711-32.979-25.711C15.255,211.872,0,227.128,0,245.879s15.255,34.007,34.007,34.007   c14.641,0,27.149-9.3,31.931-22.303h143.213c5.523,0,10-4.478,10-10c0-12.093,6.459-23.331,16.691-29.534l1.271,2.699   c-6.828,6.224-11.12,15.185-11.12,25.13c0,18.751,15.255,34.007,34.007,34.007s34.007-15.256,34.007-34.007   S278.75,211.872,259.999,211.872z M34.007,259.885c-7.724,0-14.007-6.283-14.007-14.007s6.283-14.007,14.007-14.007   c4.617,0,8.707,2.255,11.26,5.711h-11.26c-5.523,0-10,4.478-10,10s4.477,10,10,10h7.674   C39.474,259.034,36.84,259.885,34.007,259.885z M259.999,259.885c-7.724,0-14.007-6.283-14.007-14.007   c0-1.611,0.287-3.153,0.79-4.595l4.169,8.855c1.705,3.62,5.301,5.742,9.054,5.742c1.427,0,2.876-0.307,4.253-0.955   c4.997-2.353,7.14-8.311,4.787-13.307l-4.169-8.853c5.322,1.987,9.128,7.107,9.128,13.113   C274.006,253.602,267.723,259.885,259.999,259.885z"
      fill="#33A2CC" />
  </g>
</svg>
