<svg width="24" height="24" viewBox="0 0 24 24" version="1.1" xmlns="http://www.w3.org/2000/svg" xmlns:xlink="http://www.w3.org/1999/xlink">
<title>Plus Icon</title>
<desc>Created using Figma</desc>
<g id="Canvas" transform="translate(-1281 -29)">
<g id="Plus Icon">
<g id="Oval">
<use xlink:href="#path0_fill" transform="translate(1281 29)" fill="#7A7A7A"/>
</g>
<g id="Line 2">
<use xlink:href="#path1_stroke" transform="translate(1292 36)" fill="#FFFFFF"/>
</g>
<g id="Line 2">
<use xlink:href="#path2_stroke" transform="translate(1288 40)" fill="#FFFFFF"/>
</g>
</g>
</g>
<defs>
<path id="path0_fill" fill-rule="evenodd" d="M 12 24C 18.6274 24 24 18.6274 24 12C 24 5.37258 18.6274 0 12 0C 5.37258 0 0 5.37258 0 12C 0 18.6274 5.37258 24 12 24Z"/>
<path id="path1_stroke" d="M 2 0L 2 -1L 0 -1L 0 0L 2 0ZM 0 10L 0 11L 2 11L 2 10L 0 10ZM 0 0L 0 10L 2 10L 2 0L 0 0Z"/>
<path id="path2_stroke" d="M 0 0L -1 0L -1 2L 0 2L 0 0ZM 10 2L 11 2L 11 0L 10 0L 10 2ZM 0 2L 10 2L 10 0L 0 0L 0 2Z"/>
</defs>
</svg>
